<svg width="91" height="20" viewBox="0 0 91 20" fill="none" xmlns="http://www.w3.org/2000/svg">
    <path d="M60.5449 4.83374L57.4994 4.83374L57.4994 19.9395L60.5449 19.9395L60.5449 4.83374Z" fill="white"/>
    <path d="M19.9177 3.51604e-07L16.3849 13.4139L12.9739 2.29027e-07L10.4766 1.84942e-07L6.94377 13.5347L3.5328 6.23641e-08L0 0L5.54284 19.9396L8.40562 19.9396L11.6948 7.43203L14.9839 19.9396L17.8467 19.9396L23.3896 4.12893e-07L19.9177 3.51604e-07Z"
          fill="white"/>
    <path d="M53.2356 6.64653C52.5047 5.98187 51.7128 5.43807 50.7383 5.01511C48.8501 4.22961 46.5355 4.29003 44.83 5.01511C44.16 5.31722 43.4899 5.74018 42.8808 6.34441L42.8808 5.37622e-08L39.8353 0L39.8353 19.9396L42.8808 19.9396L42.8808 18.006C43.4899 18.2477 43.5509 18.4894 43.8554 18.7311C44.3427 19.0332 44.8909 19.3353 45.3173 19.5166C45.8045 19.6979 46.2918 19.8187 46.7182 19.8792C47.1446 19.9396 47.5709 20 47.9364 20C49.0328 20 50.0683 19.8187 50.9819 19.3958C51.8956 18.9728 52.7483 18.429 53.4183 17.7039C54.0883 16.9789 54.6365 16.1934 55.0629 15.2266C55.4284 14.2598 55.672 13.2931 55.672 12.2054C55.672 11.0574 55.4284 10.0302 55.002 9.06344C54.5147 8.1571 53.9665 7.31118 53.2356 6.64653ZM47.6928 7.43202C48.3628 7.43202 48.9719 7.55287 49.5201 7.79456C50.0683 8.03625 50.5555 8.39879 50.9819 8.82175C51.4083 9.24471 51.7128 9.78852 51.9565 10.3323C52.2001 10.8761 52.3219 11.5408 52.3219 12.145C52.3219 12.8097 52.2001 13.4139 51.9565 14.0181C51.7128 14.6224 51.3474 15.1057 50.921 15.5287C50.4946 15.9517 50.0073 16.3142 49.4592 16.5559C48.3628 17.0393 47.2055 17.0393 46.0482 16.6163C45.5 16.3746 45.0127 16.0725 44.5863 15.6495C44.16 15.2266 43.7945 14.7432 43.5509 14.139C43.3072 13.5347 43.1245 12.8701 43.1245 12.0846C43.1245 11.4804 43.2463 10.8761 43.429 10.3323C43.6727 9.78852 43.9772 9.24471 44.3427 8.82175C44.7082 8.39879 45.1954 8.03625 45.8045 7.73414C46.4136 7.61329 47.0227 7.43202 47.6928 7.43202Z"
          fill="white"/>
    <path d="M67.2449 8.60194e-08L64.1994 3.22573e-08L64.1994 4.83384L62.3721 4.83384L62.3721 7.49245L64.1994 7.49245L64.1994 19.9396L67.2449 19.9396L67.2449 7.49245L69.6813 7.49245L69.6813 4.83384L67.2449 4.83384L67.2449 8.60194e-08Z"
          fill="white"/>
    <path d="M91 6.45148e-08L87.3453 0L87.3453 19.9396L91 19.9396L91 6.45148e-08Z" fill="white"/>
    <path d="M60.5449 4.83374L57.4994 4.83374L57.4994 19.9395L60.5449 19.9395L60.5449 4.83374Z" fill="white"/>
    <path d="M34.1709 14.5619L34.1099 14.6827C33.8054 15.2265 33.3181 15.7703 32.6481 16.2537C31.9781 16.6767 31.1863 16.9184 30.2726 16.9184C29.8462 16.9184 29.4199 16.858 28.9326 16.7371C28.5062 16.6163 28.0189 16.3746 27.6535 16.0725C27.2271 15.7703 26.8616 15.5286 26.5571 15.0453C26.3134 14.6827 26.0698 14.441 25.948 13.8368L37.7037 13.8368L37.7646 13.4743C37.7646 13.4138 37.8255 13.2326 37.8255 12.8096C37.8255 12.5075 37.8255 12.2054 37.8255 11.9637C37.8255 10.8761 37.6427 9.84889 37.2164 8.94255C36.79 8.0362 36.2418 7.19028 35.5718 6.52563C34.9018 5.86098 34.049 5.31717 33.1354 4.95463C31.2472 4.16913 29.0544 4.22956 27.288 4.95463C26.3743 5.31717 25.5825 5.9214 24.8516 6.58605C24.1816 7.2507 23.6334 8.09663 23.207 9.06339C22.7806 10.0302 22.5979 11.0574 22.5979 12.145C22.5979 13.1722 22.7806 14.1993 23.207 15.1057C23.5725 16.0725 24.1207 16.858 24.7907 17.583C25.4607 18.3081 26.2525 18.8519 27.2271 19.2749C28.1407 19.6978 29.1762 19.8791 30.2117 19.8791C30.7599 19.8791 31.4299 19.8187 32.0999 19.6374C32.7699 19.4561 33.4399 19.2145 34.1099 18.7915C34.78 18.429 35.3891 17.8851 35.9373 17.2809C36.4854 16.6163 36.9727 15.7703 37.3382 14.864L37.46 14.5015L34.1709 14.5015L34.1709 14.5619ZM26.2525 9.84889C26.4962 9.36551 26.8007 9.00297 27.1662 8.64043C27.5316 8.27789 28.0189 7.97578 28.5062 7.79451C29.4808 7.37155 30.8208 7.37155 31.8563 7.79451C32.4045 8.0362 32.8308 8.33832 33.1963 8.70085C33.5618 9.06339 33.8663 9.42593 34.1099 9.84889C34.2927 10.2114 34.4145 10.8761 34.4754 10.8761L25.8871 10.8761C25.948 10.8761 26.0698 10.2114 26.2525 9.84889Z"
          fill="white"/>
    <path d="M81.9243 14.5619L81.8634 14.6827C81.5588 15.2265 81.0715 15.7703 80.4015 16.2537C79.7315 16.6767 78.9397 16.9184 78.026 16.9184C77.5997 16.9184 77.1733 16.858 76.686 16.7371C76.2596 16.6163 75.7723 16.3746 75.4069 16.0725C74.9805 15.7703 74.615 15.5286 74.3105 15.0453C74.0668 14.6827 73.8232 14.441 73.7014 13.8368L85.4571 13.8368L85.518 13.4743C85.518 13.4138 85.5789 13.2326 85.5789 12.8096C85.5789 12.5075 85.5789 12.2054 85.5789 11.9637C85.5789 10.8761 85.3962 9.84889 84.9698 8.94255C84.5434 8.0362 83.9952 7.19028 83.3252 6.52563C82.6552 5.86098 81.8025 5.31717 80.8888 4.95463C79.0006 4.16913 76.8078 4.22956 75.0414 4.95463C74.1278 5.31717 73.3359 5.9214 72.605 6.58605C71.935 7.2507 71.3868 8.09663 70.9604 9.06339C70.534 10.0302 70.3513 11.0574 70.3513 12.145C70.3513 13.1722 70.534 14.1993 70.9604 15.1057C71.3259 16.012 71.8741 16.858 72.5441 17.583C73.2141 18.3081 74.0059 18.8519 74.9805 19.2749C75.8942 19.6978 76.9296 19.8791 77.9651 19.8791C78.5133 19.8791 79.1833 19.8187 79.8533 19.6374C80.5233 19.4561 81.1934 19.2145 81.8634 18.7915C82.5334 18.429 83.1425 17.8851 83.6907 17.2809C84.2389 16.6163 84.7262 15.7703 85.0916 14.864L85.2134 14.5015L81.9243 14.5015L81.9243 14.5619ZM74.0059 9.84889C74.2496 9.36551 74.5541 9.00297 74.9196 8.64043C75.2851 8.27789 75.7723 7.97578 76.2596 7.79451C77.2342 7.37155 78.5742 7.37155 79.6097 7.79451C80.1579 8.0362 80.5843 8.33832 80.9497 8.70085C81.3152 9.06339 81.6197 9.42593 81.8634 9.84889C82.0461 10.2114 82.1679 10.8761 82.2288 10.8761L73.6405 10.8761C73.7014 10.8761 73.8232 10.2114 74.0059 9.84889Z"
          fill="white"/>
</svg>
