<svg width="108" height="34" viewBox="0 0 108 34" fill="none" xmlns="http://www.w3.org/2000/svg">
<g filter="url(#filter0_b_1807_19144)">
<path d="M68.5691 4.33301C67.9647 4.33301 67.4747 4.83048 67.4747 5.44412V6.83301C67.4747 7.44665 67.9647 7.94412 68.5691 7.94412H69.9371C70.5415 7.94412 71.0315 7.44665 71.0315 6.83301V5.44412C71.0315 4.83048 70.5415 4.33301 69.9371 4.33301H68.5691Z" fill="white"/>
<path d="M100.443 5.44412C100.443 4.83047 100.933 4.33301 101.538 4.33301H102.906C103.51 4.33301 104 4.83047 104 5.44412V28.2219C104 28.8355 103.51 29.333 102.906 29.333H101.538C100.933 29.333 100.443 28.8355 100.443 28.2219V5.44412Z" fill="white"/>
<path d="M67.4747 12.6663C67.4747 12.0527 67.9647 11.5552 68.5691 11.5552H69.9371C70.5415 11.5552 71.0315 12.0527 71.0315 12.6663V28.2219C71.0315 28.8355 70.5415 29.333 69.9371 29.333H68.5691C67.9647 29.333 67.4747 28.8355 67.4747 28.2219V12.6663Z" fill="white"/>
<path d="M75.8194 4.33301C75.215 4.33301 74.725 4.83048 74.725 5.44412V8.2219C74.725 8.45201 74.5413 8.63856 74.3146 8.63856H73.4938C72.8894 8.63856 72.3995 9.13603 72.3995 9.74967V10.4441C72.3995 11.0578 72.8894 11.5552 73.4938 11.5552H74.3146C74.5413 11.5552 74.725 11.7418 74.725 11.9719V28.2219C74.725 28.8355 75.215 29.333 75.8194 29.333H77.1874C77.7918 29.333 78.2818 28.8355 78.2818 28.2219V11.9719C78.2818 11.7418 78.4655 11.5552 78.6922 11.5552H81.565C82.1694 11.5552 82.6594 11.0578 82.6594 10.4441V9.74967C82.6594 9.13603 82.1694 8.63856 81.565 8.63856H78.6922C78.4655 8.63856 78.2818 8.45201 78.2818 8.2219V5.44412C78.2818 4.83048 77.7918 4.33301 77.1874 4.33301H75.8194Z" fill="white"/>
<path fill-rule="evenodd" clip-rule="evenodd" d="M43.9974 27.0283C44.4281 26.6361 44.4038 25.9631 43.9947 25.5477L43.0566 24.5953C42.5983 24.13 41.8472 24.1794 41.3355 24.5835C40.4319 25.297 39.2963 25.7219 38.0629 25.7219C35.9455 25.7219 34.1161 24.4695 33.2543 22.6545C33.1313 22.3955 33.3284 22.1108 33.6117 22.1108H45.8605C46.0361 22.1108 46.2021 22.0688 46.3493 21.9941C46.5913 21.9014 46.7897 21.7063 46.8723 21.4239C46.9255 21.2932 46.9549 21.1499 46.9549 20.9997V19.6108C46.9549 19.4988 46.9385 19.3906 46.9081 19.2886C46.8995 19.2595 46.8925 19.2297 46.8888 19.1994C46.3518 14.7352 42.6051 11.2775 38.0629 11.2775C33.1521 11.2775 29.171 15.3193 29.171 20.3052C29.171 25.2911 33.1521 29.333 38.0629 29.333C40.3434 29.333 42.4235 28.4614 43.9974 27.0283ZM33.6117 18.4997C33.3284 18.4997 33.1313 18.215 33.2543 17.9559C34.1161 16.141 35.9455 14.8886 38.0629 14.8886C40.1804 14.8886 42.0097 16.1409 42.8715 17.9559C42.9945 18.215 42.7974 18.4997 42.5142 18.4997H33.6117Z" fill="white"/>
<path fill-rule="evenodd" clip-rule="evenodd" d="M96.115 25.5477C96.5242 25.9631 96.5485 26.6361 96.1178 27.0283C94.5438 28.4614 92.4638 29.333 90.1833 29.333C85.2725 29.333 81.2914 25.2911 81.2914 20.3052C81.2914 15.3193 85.2725 11.2775 90.1833 11.2775C94.7255 11.2775 98.4722 14.7352 99.0092 19.1994C99.0128 19.2297 99.0198 19.2595 99.0285 19.2886C99.0589 19.3906 99.0752 19.4988 99.0752 19.6108V20.9997C99.0752 21.1499 99.0459 21.2932 98.9926 21.4239C98.91 21.7063 98.7117 21.9014 98.4696 21.9941C98.3225 22.0688 98.1565 22.1108 97.9808 22.1108H85.7321C85.4488 22.1108 85.2517 22.3955 85.3747 22.6545C86.2365 24.4695 88.0659 25.7219 90.1833 25.7219C91.4167 25.7219 92.5523 25.297 93.4559 24.5835C93.9676 24.1794 94.7186 24.13 95.177 24.5953L96.115 25.5477ZM85.3747 17.9559C85.2517 18.215 85.4488 18.4997 85.7321 18.4997H94.6346C94.9178 18.4997 95.1149 18.215 94.9919 17.9559C94.1301 16.1409 92.3008 14.8886 90.1833 14.8886C88.0659 14.8886 86.2365 16.141 85.3747 17.9559Z" fill="white"/>
<path d="M4.81219 5.07756C4.22782 5.23639 3.881 5.84565 4.0376 6.43837L9.84985 28.44C9.9749 28.9133 10.383 29.2329 10.8399 29.2617V29.2635H10.8822C10.8989 29.264 10.9157 29.264 10.9325 29.2635H12.1247C12.1415 29.264 12.1582 29.264 12.175 29.2635H12.2079V29.2623C12.6686 29.2372 13.0814 28.9165 13.2072 28.4401L17.2695 13.0629L21.3317 28.44C21.4576 28.9165 21.8704 29.2372 22.3311 29.2623V29.2635H22.3641C22.3808 29.264 22.3975 29.264 22.4143 29.2635H23.6065C23.6234 29.264 23.6401 29.264 23.6568 29.2635H23.699V29.2617C24.1559 29.2329 24.5641 28.9133 24.6891 28.4401L30.5014 6.43841C30.658 5.84565 30.3112 5.23639 29.7268 5.07756L28.4041 4.7181C27.8197 4.55927 27.2191 4.91103 27.0625 5.50375L23.4068 19.3418C23.2981 19.7534 22.7228 19.7534 22.614 19.3418L18.9584 5.50375C18.832 5.02537 18.4164 4.70396 17.9535 4.68124V4.68022H17.9246C17.9089 4.67988 17.8931 4.67988 17.8773 4.68022H16.6617L16.6432 4.67998C16.6336 4.67995 16.624 4.68002 16.6144 4.68022H16.5855V4.68124C16.1226 4.70396 15.707 5.02537 15.5806 5.50375L11.9249 19.3418C11.8162 19.7534 11.2409 19.7534 11.1322 19.3418L7.47651 5.50375C7.31993 4.91103 6.71924 4.55927 6.13488 4.7181L4.81219 5.07756Z" fill="white"/>
<path fill-rule="evenodd" clip-rule="evenodd" d="M48.3228 5.44412C48.3228 4.83047 48.8128 4.33301 49.4172 4.33301H50.7852C51.3896 4.33301 51.8796 4.83047 51.8796 5.44412V12.2483C51.8796 12.5918 52.2702 12.793 52.5583 12.6128C53.9126 11.766 55.5075 11.2775 57.2148 11.2775C62.1256 11.2775 66.1067 15.3193 66.1067 20.3052C66.1067 25.2911 62.1256 29.333 57.2148 29.333C55.458 29.333 53.8203 28.8158 52.4412 27.9231C52.2039 27.7695 51.8796 27.9362 51.8796 28.2219C51.8796 28.8355 51.3896 29.333 50.7852 29.333H49.4172C48.8128 29.333 48.3228 28.8355 48.3228 28.2219V5.44412ZM57.2148 25.7219C54.2683 25.7219 51.8796 23.2968 51.8796 20.3052C51.8796 17.3137 54.2683 14.8886 57.2148 14.8886C60.1613 14.8886 62.5499 17.3137 62.5499 20.3052C62.5499 23.2968 60.1613 25.7219 57.2148 25.7219Z" fill="white"/>
</g>
<defs>
<filter id="filter0_b_1807_19144" x="-6" y="-5.66699" width="120" height="45" filterUnits="userSpaceOnUse" color-interpolation-filters="sRGB">
<feFlood flood-opacity="0" result="BackgroundImageFix"/>
<feGaussianBlur in="BackgroundImageFix" stdDeviation="5"/>
<feComposite in2="SourceAlpha" operator="in" result="effect1_backgroundBlur_1807_19144"/>
<feBlend mode="normal" in="SourceGraphic" in2="effect1_backgroundBlur_1807_19144" result="shape"/>
</filter>
</defs>
</svg>
