<svg width="96" height="24" viewBox="0 0 96 24" fill="none" xmlns="http://www.w3.org/2000/svg">
<g clip-path="url(#clip0_8121_7706)">
<path d="M58.7294 2.28471C58.7294 1.0229 59.7407 0 60.9882 0C62.2358 0 63.2471 1.0229 63.2471 2.28471C63.2471 3.54653 62.2358 4.56943 60.9882 4.56943C59.7407 4.56943 58.7294 3.54653 58.7294 2.28471Z" fill="#454E68"/>
<path fill-rule="evenodd" clip-rule="evenodd" d="M37.2822 21.7974C35.7822 23.1603 33.7986 23.9895 31.6235 23.9895C26.9454 23.9895 23.1529 20.1536 23.1529 15.4218C23.1529 10.69 26.9454 6.85414 31.6235 6.85414C36.3017 6.85414 40.0941 10.69 40.0941 15.4218C40.0941 16.4255 39.2115 17.1354 38.2193 17.1354H28.4274C27.648 17.1354 27.1149 17.9237 27.5895 18.5491C28.5185 19.7733 29.9799 20.5624 31.6235 20.5624C33.0017 20.5624 34.2517 20.0076 35.1672 19.1068C35.3283 18.9482 35.5403 18.8489 35.7651 18.8489C37.4749 18.8489 38.5541 20.6417 37.2822 21.7974ZM35.6576 12.2945C36.1322 12.9199 35.5991 13.7083 34.8196 13.7083H28.4274C27.648 13.7083 27.1149 12.9199 27.5895 12.2945C28.5185 11.0704 29.9799 10.2812 31.6235 10.2812C33.2672 10.2812 34.7286 11.0704 35.6576 12.2945Z" fill="#454E68"/>
<path fill-rule="evenodd" clip-rule="evenodd" d="M83.0118 23.9895C85.1868 23.9895 87.1704 23.1603 88.6704 21.7974C89.9423 20.6417 88.8631 18.8489 87.1534 18.8489C86.9285 18.8489 86.7166 18.9482 86.5554 19.1068C85.6399 20.0076 84.3899 20.5624 83.0118 20.5624C81.3681 20.5624 79.9067 19.7733 78.9777 18.5491C78.5031 17.9237 79.0362 17.1354 79.8157 17.1354H89.6075C90.5998 17.1354 91.4824 16.4255 91.4824 15.4218C91.4824 10.69 87.6899 6.85414 83.0118 6.85414C78.3336 6.85414 74.5412 10.69 74.5412 15.4218C74.5412 20.1536 78.3336 23.9895 83.0118 23.9895ZM86.2079 13.7083C86.9873 13.7083 87.5204 12.9199 87.0458 12.2945C86.1168 11.0704 84.6554 10.2812 83.0118 10.2812C81.3681 10.2812 79.9067 11.0704 78.9777 12.2945C78.5031 12.9199 79.0362 13.7083 79.8157 13.7083H86.2079Z" fill="#454E68"/>
<path d="M60.9882 6.85414C60.0526 6.85414 59.2941 7.62131 59.2941 8.56768V22.276C59.2941 23.2223 60.0526 23.9895 60.9882 23.9895C61.9239 23.9895 62.6824 23.2223 62.6824 22.276V8.56768C62.6824 7.62131 61.9239 6.85414 60.9882 6.85414Z" fill="#454E68"/>
<path d="M11.3123 11.7921C11.4588 11.2222 12.2589 11.2222 12.4054 11.7921L15.2471 22.8471C15.4479 23.611 16.1819 24.0259 16.9412 23.9987C17.7005 24.0259 18.4344 23.611 18.6353 22.8471L23.6599 3.2999C23.9003 2.38575 23.3679 1.44612 22.4708 1.20117C21.5737 0.956229 20.6515 1.49872 20.4112 2.41288L17.5117 13.4392C17.3625 14.0067 16.5655 14.0044 16.4194 13.4362L13.5529 2.28472C13.3521 1.52085 12.6181 1.10597 11.8588 1.13312C11.0995 1.10597 10.3656 1.52085 10.1647 2.28472L7.29823 13.4362C7.15214 14.0044 6.35516 14.0067 6.20596 13.4392L3.30648 2.41288C3.06611 1.49872 2.14398 0.956229 1.24686 1.20117C0.349736 1.44612 -0.182657 2.38575 0.0577149 3.2999L5.08235 22.8471C5.28323 23.611 6.01711 24.0259 6.7764 23.9987C7.53573 24.0259 8.26972 23.611 8.47059 22.8471L11.3123 11.7921Z" fill="#454E68"/>
<path d="M94.3059 1.14236C93.3702 1.14236 92.6118 1.90953 92.6118 2.85589V22.276C92.6118 23.2223 93.3702 23.9895 94.3059 23.9895C95.2415 23.9895 96 23.2223 96 22.276V2.85589C96 1.90953 95.2415 1.14236 94.3059 1.14236Z" fill="#454E68"/>
<path d="M66.6353 2.85589C66.6353 1.90953 67.3938 1.14236 68.3294 1.14236C69.2651 1.14236 70.0235 1.90953 70.0235 2.85589V6.28296C70.0235 6.59842 70.2764 6.85414 70.5882 6.85414H73.4118C74.3474 6.85414 75.1059 7.62131 75.1059 8.56768C75.1059 9.51404 74.3474 10.2812 73.4118 10.2812H70.5882C70.2764 10.2812 70.0235 10.5369 70.0235 10.8524V22.276C70.0235 23.2223 69.2651 23.9895 68.3294 23.9895C67.3938 23.9895 66.6353 23.2223 66.6353 22.276V10.8524C66.6353 10.5369 66.3825 10.2812 66.0706 10.2812H65.5059C64.5702 10.2812 63.8118 9.51404 63.8118 8.56768C63.8118 7.62131 64.5702 6.85414 65.5059 6.85414H66.0706C66.3825 6.85414 66.6353 6.59842 66.6353 6.28296V2.85589Z" fill="#454E68"/>
<path fill-rule="evenodd" clip-rule="evenodd" d="M41.7882 1.71354C41.7882 0.767172 42.5467 0 43.4824 0C44.418 0 45.1765 0.767172 45.1765 1.71354V8.335C45.1765 8.79666 45.6973 9.07671 46.1038 8.86676C47.1812 8.31033 48.4014 7.9965 49.6941 7.9965C54.0604 7.9965 57.6 11.5767 57.6 15.993C57.6 20.4093 54.0604 23.9895 49.6941 23.9895C48.3303 23.9895 47.0471 23.6402 45.9272 23.0252C45.5596 22.8233 45.0543 23.0429 44.7874 23.3686C44.4767 23.7479 44.0074 23.9895 43.4824 23.9895C42.5467 23.9895 41.7882 23.2223 41.7882 22.276V1.71354ZM49.6941 20.5624C47.1991 20.5624 45.1765 18.5166 45.1765 15.993C45.1765 13.4694 47.1991 11.4236 49.6941 11.4236C52.1891 11.4236 54.2118 13.4694 54.2118 15.993C54.2118 18.5166 52.1891 20.5624 49.6941 20.5624Z" fill="#454E68"/>
</g>
<defs>
<clipPath id="clip0_8121_7706">
<rect width="96" height="24" fill="white"/>
</clipPath>
</defs>
</svg>
