<svg width="60" height="19" viewBox="0 0 60 19" fill="none" xmlns="http://www.w3.org/2000/svg">
<g filter="url(#filter0_b_1804_15320)">
<path d="M38.0939 2.22266C37.7581 2.22266 37.4859 2.49903 37.4859 2.83994V3.61154C37.4859 3.95246 37.7581 4.22883 38.0939 4.22883H38.8539C39.1897 4.22883 39.4619 3.95246 39.4619 3.61154V2.83994C39.4619 2.49903 39.1897 2.22266 38.8539 2.22266H38.0939Z" fill="#030302"/>
<path d="M55.8017 2.83994C55.8017 2.49902 56.074 2.22266 56.4097 2.22266H57.1697C57.5055 2.22266 57.7777 2.49902 57.7777 2.83994V15.4943C57.7777 15.8352 57.5055 16.1115 57.1697 16.1115H56.4097C56.074 16.1115 55.8017 15.8352 55.8017 15.4943V2.83994Z" fill="#030302"/>
<path d="M37.4859 6.85229C37.4859 6.51137 37.7581 6.235 38.0939 6.235H38.8539C39.1897 6.235 39.4619 6.51137 39.4619 6.85229V15.4943C39.4619 15.8352 39.1897 16.1115 38.8539 16.1115H38.0939C37.7581 16.1115 37.4859 15.8352 37.4859 15.4943V6.85229Z" fill="#030302"/>
<path d="M42.1218 2.22266C41.7861 2.22266 41.5139 2.49903 41.5139 2.83994V4.38315C41.5139 4.51099 41.4118 4.61463 41.2859 4.61463H40.8299C40.4941 4.61463 40.2219 4.891 40.2219 5.23192V5.61772C40.2219 5.95863 40.4941 6.235 40.8299 6.235H41.2859C41.4118 6.235 41.5139 6.33864 41.5139 6.46648V15.4943C41.5139 15.8352 41.7861 16.1115 42.1218 16.1115H42.8818C43.2176 16.1115 43.4898 15.8352 43.4898 15.4943V6.46648C43.4898 6.33864 43.5919 6.235 43.7178 6.235H45.3138C45.6496 6.235 45.9218 5.95863 45.9218 5.61772V5.23192C45.9218 4.891 45.6496 4.61463 45.3138 4.61463H43.7178C43.5919 4.61463 43.4898 4.51099 43.4898 4.38315V2.83994C43.4898 2.49903 43.2176 2.22266 42.8818 2.22266H42.1218Z" fill="#030302"/>
<path fill-rule="evenodd" clip-rule="evenodd" d="M24.4429 14.8312C24.6822 14.6133 24.6687 14.2394 24.4414 14.0086L23.9203 13.4795C23.6656 13.221 23.2484 13.2484 22.9641 13.4729C22.4621 13.8693 21.8312 14.1054 21.146 14.1054C19.9697 14.1054 18.9534 13.4096 18.4746 12.4013C18.4062 12.2574 18.5158 12.0992 18.6731 12.0992H25.478C25.5756 12.0992 25.6678 12.0759 25.7495 12.0344C25.884 11.9829 25.9942 11.8745 26.0401 11.7176C26.0697 11.645 26.086 11.5654 26.086 11.4819V10.7103C26.086 10.6481 26.0769 10.588 26.06 10.5313C26.0552 10.5151 26.0513 10.4986 26.0493 10.4818C25.7509 8.00163 23.6694 6.08068 21.146 6.08068C18.4178 6.08068 16.2061 8.32617 16.2061 11.0961C16.2061 13.8661 18.4178 16.1115 21.146 16.1115C22.413 16.1115 23.5685 15.6273 24.4429 14.8312ZM18.6731 10.093C18.5158 10.093 18.4062 9.93486 18.4746 9.79095C18.9534 8.78263 19.9697 8.08685 21.146 8.08685C22.3224 8.08685 23.3387 8.78262 23.8175 9.79094C23.8858 9.93486 23.7763 10.093 23.6189 10.093H18.6731Z" fill="#030302"/>
<path fill-rule="evenodd" clip-rule="evenodd" d="M53.3972 14.0086C53.6245 14.2394 53.638 14.6133 53.3987 14.8312C52.5243 15.6273 51.3687 16.1115 50.1018 16.1115C47.3735 16.1115 45.1618 13.8661 45.1618 11.0961C45.1618 8.32617 47.3735 6.08068 50.1018 6.08068C52.6252 6.08068 54.7067 8.00163 55.0051 10.4818C55.0071 10.4986 55.011 10.5151 55.0158 10.5313C55.0327 10.588 55.0417 10.6481 55.0417 10.7103V11.4819C55.0417 11.5654 55.0254 11.645 54.9959 11.7176C54.95 11.8745 54.8398 11.9829 54.7053 12.0344C54.6236 12.0759 54.5313 12.0992 54.4338 12.0992H47.6289C47.4715 12.0992 47.362 12.2574 47.4303 12.4013C47.9091 13.4096 48.9254 14.1054 50.1018 14.1054C50.787 14.1054 51.4179 13.8693 51.9199 13.4729C52.2042 13.2484 52.6214 13.221 52.8761 13.4795L53.3972 14.0086ZM47.4303 9.79095C47.362 9.93486 47.4715 10.093 47.6289 10.093H52.5747C52.7321 10.093 52.8416 9.93486 52.7732 9.79094C52.2944 8.78262 51.2781 8.08685 50.1018 8.08685C48.9254 8.08685 47.9091 8.78263 47.4303 9.79095Z" fill="#030302"/>
<path d="M2.67339 2.6363C2.34874 2.72453 2.15606 3.06301 2.24306 3.3923L5.47209 15.6154C5.54156 15.8784 5.76829 16.0559 6.02214 16.0719V16.073H6.04561C6.05488 16.0732 6.0642 16.0732 6.07353 16.073H6.73587C6.74521 16.0732 6.75452 16.0732 6.76381 16.073H6.78213V16.0722C7.03803 16.0583 7.26738 15.8802 7.3373 15.6155L9.59412 7.07257L11.8509 15.6154C11.9208 15.8801 12.1502 16.0583 12.4061 16.0722V16.073H12.4244C12.4337 16.0732 12.443 16.0732 12.4524 16.073H13.1147C13.124 16.0732 13.1333 16.0732 13.1426 16.073H13.1661V16.0719C13.4199 16.0559 13.6467 15.8784 13.7161 15.6155L16.9452 3.39232C17.0322 3.06301 16.8395 2.72453 16.5148 2.6363L15.78 2.43659C15.4554 2.34836 15.1216 2.54378 15.0347 2.87307L13.0037 10.5609C12.9433 10.7896 12.6237 10.7896 12.5633 10.5609L10.5324 2.87307C10.4622 2.6073 10.2313 2.42874 9.9741 2.41612V2.41555H9.95806C9.94933 2.41536 9.94057 2.41536 9.93178 2.41555H9.25643L9.24617 2.41542C9.24082 2.4154 9.23549 2.41544 9.23016 2.41555H9.21411V2.41612C8.95695 2.42874 8.72604 2.6073 8.65583 2.87307L6.62491 10.5609C6.5645 10.7896 6.24489 10.7896 6.18448 10.5609L4.15356 2.87307C4.06657 2.54378 3.73286 2.34836 3.40821 2.43659L2.67339 2.6363Z" fill="#030302"/>
<path fill-rule="evenodd" clip-rule="evenodd" d="M26.846 2.83994C26.846 2.49902 27.1182 2.22266 27.454 2.22266H28.214C28.5497 2.22266 28.822 2.49902 28.822 2.83994V6.62002C28.822 6.81085 29.0389 6.92263 29.199 6.82256C29.9514 6.35208 30.8374 6.08068 31.7859 6.08068C34.5142 6.08068 36.7259 8.32617 36.7259 11.0961C36.7259 13.8661 34.5142 16.1115 31.7859 16.1115C30.81 16.1115 29.9001 15.8242 29.1339 15.3283C29.0021 15.243 28.822 15.3355 28.822 15.4943C28.822 15.8352 28.5497 16.1115 28.214 16.1115H27.454C27.1182 16.1115 26.846 15.8352 26.846 15.4943V2.83994ZM31.7859 14.1054C30.149 14.1054 28.822 12.7581 28.822 11.0961C28.822 9.43415 30.149 8.08685 31.7859 8.08685C33.4229 8.08685 34.7499 9.43415 34.7499 11.0961C34.7499 12.7581 33.4229 14.1054 31.7859 14.1054Z" fill="#030302"/>
</g>
<defs>
<filter id="filter0_b_1804_15320" x="-7.77783" y="-7.77734" width="75.5557" height="33.8887" filterUnits="userSpaceOnUse" color-interpolation-filters="sRGB">
<feFlood flood-opacity="0" result="BackgroundImageFix"/>
<feGaussianBlur in="BackgroundImageFix" stdDeviation="5"/>
<feComposite in2="SourceAlpha" operator="in" result="effect1_backgroundBlur_1804_15320"/>
<feBlend mode="normal" in="SourceGraphic" in2="effect1_backgroundBlur_1804_15320" result="shape"/>
</filter>
</defs>
</svg>
