<svg width="119" height="26" viewBox="0 0 119 26" fill="none" xmlns="http://www.w3.org/2000/svg">
    <path d="M78.7054 6.76573e-08L74.7463 0L74.7463 19.5261L78.7054 19.5261L78.7054 6.76573e-08Z" fill="transparent"/>
    <path d="M25.892 0.147431L21.2995 17.4866L16.8654 0.147431L13.619 0.147431L9.02656 17.6428L4.59246 0.147431L0 0.14743L7.20541 25.9219L10.9269 25.9219L15.2026 9.75428L19.4784 25.9219L23.1998 25.9219L30.4053 0.147431L25.892 0.147431Z"
          fill="#171A2A"/>
    <path d="M69.2036 8.73892C68.2535 7.87977 67.2241 7.17683 65.9572 6.6301C63.5026 5.61474 60.4938 5.69285 58.2767 6.6301C57.4057 7.02062 56.5348 7.56736 55.743 8.3484L55.743 0.14743L51.7839 0.14743L51.7839 25.9219L55.743 25.9219L55.743 23.4226C56.5348 23.735 56.6139 24.0474 57.0098 24.3598C57.6433 24.7503 58.3559 25.1409 58.9102 25.3752C59.5436 25.6095 60.1771 25.7657 60.7313 25.8438C61.2856 25.9219 61.8398 26 62.3149 26C63.7402 26 65.0862 25.7657 66.2739 25.219C67.4617 24.6722 68.5702 23.9693 69.4412 23.032C70.3121 22.0948 71.0248 21.0794 71.579 19.8298C72.0541 18.5801 72.3708 17.3304 72.3708 15.9245C72.3708 14.4406 72.0541 13.1128 71.4999 11.8631C70.8664 10.6915 70.1538 9.59807 69.2036 8.73892ZM61.9982 9.75428C62.8692 9.75428 63.661 9.91049 64.3736 10.2229C65.0862 10.5353 65.7197 11.004 66.2739 11.5507C66.8282 12.0974 67.2241 12.8004 67.5408 13.5033C67.8576 14.2062 68.0159 15.0654 68.0159 15.8464C68.0159 16.7056 67.8576 17.4866 67.5408 18.2677C67.2241 19.0487 66.749 19.6735 66.1948 20.2203C65.6405 20.767 65.0071 21.2356 64.2944 21.5481C62.8692 22.1729 61.3648 22.1729 59.8603 21.6262C59.1477 21.3137 58.5143 20.9232 57.96 20.3765C57.4057 19.8298 56.9307 19.2049 56.6139 18.4239C56.2972 17.6428 56.0597 16.7837 56.0597 15.7683C56.0597 14.9873 56.218 14.2062 56.4556 13.5033C56.7723 12.8004 57.1682 12.0974 57.6433 11.5507C58.1184 11.004 58.7518 10.5353 59.5436 10.1448C60.3354 9.9886 61.1272 9.75428 61.9982 9.75428Z"
          fill="#171A2A"/>
    <path d="M87.4151 0.147431L83.456 0.14743L83.456 6.39579L81.0806 6.39579L81.0806 9.83239L83.456 9.83239L83.456 25.9219L87.4151 25.9219L87.4151 9.83239L90.5823 9.83239L90.5823 6.39579L87.4151 6.39579L87.4151 0.147431Z"
          fill="#171A2A"/>
    <path d="M118.295 0.147431L113.545 0.14743L113.545 25.9219L118.295 25.9219L118.295 0.147431Z" fill="#171A2A"/>
    <path d="M78.7054 6.39465L74.7463 6.39465L74.7463 25.9208L78.7054 25.9208L78.7054 6.39465Z" fill="#171A2A"/>
    <path d="M44.4204 18.9696L44.3412 19.1258C43.9453 19.8287 43.3118 20.5317 42.4409 21.1565C41.5699 21.7032 40.5405 22.0157 39.3528 22.0157C38.7986 22.0157 38.2443 21.9376 37.6109 21.7813C37.0566 21.6251 36.4232 21.3127 35.9481 20.9222C35.3938 20.5317 34.9187 20.2193 34.5228 19.5944C34.2061 19.1258 33.8894 18.8134 33.731 18.0323L49.0128 18.0323L49.092 17.5637C49.092 17.4856 49.1712 17.2513 49.1712 16.7046C49.1712 16.314 49.1712 15.9235 49.1712 15.6111C49.1712 14.2052 48.9337 12.8774 48.3794 11.7059C47.8251 10.5343 47.1125 9.44084 46.2415 8.58169C45.3705 7.72254 44.262 7.0196 43.0743 6.55097C40.6197 5.53562 37.7692 5.61372 35.473 6.55097C34.2853 7.0196 33.2559 7.80064 32.3058 8.65979C31.4348 9.51894 30.7222 10.6124 30.1679 11.8621C29.6136 13.1118 29.3761 14.4395 29.3761 15.8454C29.3761 17.1732 29.6136 18.501 30.1679 19.6725C30.643 20.9222 31.3556 21.9376 32.2266 22.8748C33.0976 23.8121 34.1269 24.515 35.3938 25.0617C36.5815 25.6085 37.9276 25.8428 39.2736 25.8428C39.9863 25.8428 40.8573 25.7647 41.7282 25.5304C42.5992 25.2961 43.4702 24.9836 44.3412 24.4369C45.2122 23.9683 46.004 23.2653 46.7166 22.4843C47.4292 21.6251 48.0627 20.5317 48.5378 19.3601L48.6961 18.8915L44.4204 18.8915L44.4204 18.9696ZM34.1269 12.8774C34.4436 12.2526 34.8395 11.784 35.3146 11.3153C35.7897 10.8467 36.4232 10.4562 37.0566 10.2219C38.3235 9.67515 40.0655 9.67515 41.4115 10.2219C42.1241 10.5343 42.6784 10.9248 43.1535 11.3935C43.6286 11.8621 44.0245 12.3307 44.3412 12.8774C44.5787 13.3461 44.7371 14.2052 44.8163 14.2052L33.6518 14.2052C33.731 14.2052 33.8894 13.3461 34.1269 12.8774Z"
          fill="#171A2A"/>
    <path d="M106.498 18.9696L106.418 19.1258C106.022 19.8287 105.389 20.5317 104.518 21.1565C103.647 21.7032 102.618 22.0157 101.43 22.0157C100.876 22.0157 100.321 21.9376 99.688 21.7813C99.1337 21.6251 98.5003 21.3127 98.0252 20.9222C97.471 20.5317 96.9959 20.2193 96.6 19.5944C96.2833 19.1258 95.9665 18.8134 95.8082 18.0323L111.09 18.0323L111.169 17.5637C111.169 17.4856 111.248 17.2513 111.248 16.7046C111.248 16.314 111.248 15.9235 111.248 15.6111C111.248 14.2052 111.011 12.8774 110.457 11.7059C109.902 10.5343 109.19 9.44084 108.319 8.58169C107.448 7.72254 106.339 7.0196 105.151 6.55097C102.697 5.53562 99.8464 5.61372 97.5501 6.55097C96.3624 7.0196 95.3331 7.80064 94.3829 8.65979C93.5119 9.51894 92.7993 10.6124 92.2451 11.8621C91.6908 13.1118 91.4532 14.4395 91.4532 15.8454C91.4532 17.1732 91.6908 18.501 92.2451 19.6725C92.7201 20.8441 93.4328 21.9376 94.3037 22.8748C95.1747 23.8121 96.2041 24.515 97.471 25.0617C98.6587 25.6085 100.005 25.8428 101.351 25.8428C102.063 25.8428 102.934 25.7647 103.805 25.5304C104.676 25.2961 105.547 24.9836 106.418 24.4369C107.289 23.9683 108.081 23.2653 108.794 22.4843C109.506 21.6251 110.14 20.5317 110.615 19.3601L110.773 18.8915L106.498 18.8915L106.498 18.9696ZM96.2041 12.8774C96.5208 12.2526 96.9167 11.784 97.3918 11.3153C97.8669 10.8467 98.5003 10.4562 99.1337 10.2219C100.401 9.67515 102.143 9.67515 103.489 10.2219C104.201 10.5343 104.756 10.9248 105.231 11.3935C105.706 11.8621 106.102 12.3307 106.418 12.8774C106.656 13.3461 106.814 14.2052 106.893 14.2052L95.729 14.2052C95.8082 14.2052 95.9665 13.3461 96.2041 12.8774Z"
          fill="#171A2A"/>
</svg>
