<svg width="1247" height="1008" viewBox="0 0 1247 1008" fill="none" xmlns="http://www.w3.org/2000/svg">
<mask id="mask0" mask-type="alpha" maskUnits="userSpaceOnUse" x="0" y="0" width="1247" height="1008">
<rect width="1247" height="1008" fill="#C4C4C4"/>
</mask>
<g mask="url(#mask0)">
<g opacity="0.3">
<path d="M1034.15 93.0678L1034.18 93.0549L1034.2 93.0385C1047.79 84.7415 1065.18 85.9157 1081.1 94.8714L1081.34 94.4357C1104.9 107.693 1125.08 137.799 1124.77 178.911L1124.27 178.907C1124.16 193.732 1121.38 210.004 1115.1 227.449C1107.63 248.217 1098.52 268.93 1089.45 289.552C1088.23 292.335 1087.01 295.117 1085.79 297.897L1086.25 298.098C1064.44 347.86 1044.24 396.927 1049.5 444.496L1049 444.551C1051.61 468.173 1060.47 491.423 1078.45 514.193L1078.85 513.883L1078.45 514.193C1086.88 524.862 1095.36 534.447 1103.69 543.036L1104.05 542.688C1125.84 565.152 1146.63 580.8 1162.98 591.242L1162.71 591.663C1172.88 598.156 1181.33 602.642 1187.24 605.505C1190.2 606.937 1192.52 607.963 1194.11 608.632C1194.37 608.743 1194.61 608.843 1194.83 608.934C1194.6 608.97 1194.33 609.009 1194.05 609.051C1192.35 609.303 1189.85 609.659 1186.63 610.074C1180.18 610.906 1170.86 611.977 1159.37 612.936C1136.4 614.855 1104.76 616.325 1070.09 614.532L1070.06 615.031C988.973 610.839 891.311 588.812 849.06 512.998L849.497 512.755C832.159 481.644 824.166 441.413 830.578 389.523C834.713 356.059 842.416 325.867 852.487 298.734L852.019 298.56C878.086 228.328 920.003 178.546 957.034 145.54L957.367 145.913C978.104 127.43 997.307 114.215 1011.32 105.623C1018.33 101.326 1024.04 98.1858 1028 96.1202C1029.98 95.0875 1031.52 94.3235 1032.56 93.8181C1033.08 93.5654 1033.48 93.3774 1033.75 93.2528C1033.88 93.1905 1033.98 93.144 1034.05 93.1132L1034.12 93.0788L1034.14 93.0704L1034.15 93.0684L1034.15 93.0679C1034.15 93.0679 1034.15 93.0678 1033.94 92.6119L1034.15 93.0678Z" stroke="#708FFF" stroke-dasharray="200 200"/>
<path d="M1060.13 578.936C1020.59 553.763 972.212 526.588 918.598 498.354L918.482 498.575C895.222 486.327 870.977 473.878 846.039 461.308C824.144 450.271 801.708 441.423 779.145 435.075L779.213 434.834C731.045 421.282 682.293 419.111 636.986 431.337L637.051 431.578C614.296 437.719 592.41 447.496 571.906 461.292C561.196 468.502 551.677 477.258 543.436 487.168L543.244 487.008C526.993 506.551 515.705 530.57 510.026 556.066L510.27 556.12C507.479 568.652 506.045 581.541 506.045 594.43C506.045 603.703 505.658 612.779 504.701 621.766L504.452 621.74C502.57 639.406 498.479 656.718 490.777 674.486L491.007 674.586C487.551 682.559 483.37 690.622 478.337 698.85L478.337 698.85C473.661 706.471 469.266 713.653 465.131 720.449L464.917 720.319C454.862 736.842 446.337 751.083 439.009 763.798L439.226 763.922C434.679 771.812 430.593 779.113 426.889 786.007L426.669 785.888L426.889 786.007C417.982 802.552 412.303 819.172 409.776 835.478L409.528 835.439C404.012 871.026 413.475 905.136 437.153 933.729L437.345 933.57C447.796 946.189 461.023 957.736 476.963 967.859C494.315 978.877 526.803 997.467 565.876 1018.72L565.757 1018.94C621.575 1049.3 690.821 1085.08 748.549 1111.97L748.654 1111.75C788.547 1130.33 822.92 1144.65 843.556 1150.01C851.582 1152.09 859.671 1153.83 867.709 1155.28L867.665 1155.53C884.626 1158.6 901.356 1160.4 916.778 1161.39L916.794 1161.14C925.513 1161.71 933.814 1162.01 941.502 1162.14L941.51 1162.14L941.518 1162.14C963.434 1163.92 988.929 1163.06 1015.27 1160.02L1015.3 1160.27C1066.07 1154.42 1119.95 1140.45 1157.37 1121.54L1157.26 1121.32C1171.78 1113.97 1183.81 1105.89 1192.21 1097.26C1200.6 1088.63 1205.34 1079.48 1205.34 1069.97C1205.35 1067.24 1205.4 1063.28 1205.46 1058.23C1205.71 1037.99 1206.19 1000.32 1204.84 955.106L1205.09 955.099C1202.99 884.986 1196.52 796.717 1178.07 727.088L1177.83 727.152C1166.09 682.848 1149.51 646.15 1126.17 626.474C1108.74 611.775 1086.33 595.906 1060 579.147L1060.13 578.936Z" stroke="#708FFF" stroke-width="0.5" stroke-dasharray="400 400"/>
<path d="M713.793 432.916L713.794 432.916C719.086 431.164 726.615 430.52 735.832 430.841C745.039 431.163 755.888 432.446 767.796 434.521C791.611 438.672 819.627 445.984 847.146 455.071C874.666 464.158 901.673 475.015 923.473 486.25C934.373 491.868 943.963 497.576 951.661 503.2C959.366 508.829 965.145 514.351 968.457 519.589L968.457 519.589C979.543 537.102 977.544 556.369 966.496 576.293C955.439 596.233 935.349 616.763 910.399 636.679C887.083 655.283 859.871 670.256 838.477 680.58C827.782 685.741 818.546 689.738 811.984 692.445C808.703 693.798 806.091 694.829 804.3 695.521C803.405 695.867 802.714 696.128 802.248 696.303C802.169 696.333 802.095 696.36 802.029 696.385L758.905 562.37L758.594 561.403L758.017 562.24L685.606 667.325C685.442 667.127 685.231 666.865 684.978 666.538C684.305 665.667 683.335 664.33 682.154 662.477C679.792 658.771 676.588 653 673.243 644.761C666.552 628.284 659.291 601.934 657.064 562.495L657.064 562.495C655.182 529.758 661.035 500.097 671.536 477.249C682.043 454.387 697.17 438.409 713.793 432.916Z" stroke="#708FFF"/>
<path d="M577.55 70.305L577.55 70.3049C585 38.0321 597.308 14.4701 613.133 -1.9409C628.955 -18.3479 648.32 -27.6354 669.94 -31.3188C713.206 -38.6905 765.501 -23.6142 816.352 1.82634C867.188 27.2587 916.501 63.0087 953.773 96.872C972.409 113.803 988.025 130.255 999.313 144.701C1010.62 159.169 1017.53 171.556 1018.85 180.368C1024.18 215.994 1008.89 253.917 989.061 289.264C979.683 305.984 969.306 322.103 959.644 337.11C959.098 337.958 958.554 338.802 958.013 339.643C947.903 355.355 938.691 369.806 932.433 382.354L932.433 382.354C919.914 407.49 916.668 424.927 917.077 442.86C917.281 451.811 918.396 460.878 919.711 471.065C919.797 471.737 919.885 472.414 919.973 473.096C921.224 482.759 922.609 493.468 923.559 506.07C924.622 520.155 914.378 531.828 897.598 541.079C880.844 550.317 857.74 557.039 833.482 561.263C809.231 565.486 783.865 567.206 762.608 566.458C751.979 566.085 742.388 565.095 734.482 563.497C726.563 561.896 720.387 559.694 716.546 556.93L716.254 557.336L716.546 556.93C708.37 551.049 703.701 546.367 701.211 541.839C698.733 537.336 698.383 532.933 698.971 527.531C699.282 524.673 699.858 521.534 700.512 517.967C702.335 508.04 704.767 494.79 703.791 475.008C703.127 461.529 700.18 452.864 695.387 446.904C690.595 440.945 684.011 437.76 676.238 435.127C673.222 434.106 670.022 433.165 666.666 432.178C652.709 428.075 636.053 423.179 618.649 408.359C605.062 396.778 594.604 374.474 586.85 346.272C579.102 318.095 574.077 284.124 571.292 249.314C565.72 179.682 569.117 106.787 577.55 70.305Z" stroke="#708FFF"/>
<path d="M928.153 398.712C928.295 398.294 928.465 397.797 928.661 397.225C929.332 395.273 930.312 392.456 931.551 388.996C934.029 382.075 937.541 372.583 941.676 362.299C949.955 341.709 960.706 318.017 970.646 305.383L970.646 305.383C985.263 286.782 997.899 265.171 1004.05 244.62C1010.2 224.079 1009.9 204.491 998.467 190.071C992.149 182.096 983.97 175.867 973.851 175.154C963.728 174.44 951.814 179.256 938.054 193.032C932.461 198.631 926.664 200.882 920.533 200.623C914.374 200.364 907.812 197.57 900.72 192.938C889.832 185.827 877.838 174.489 864.297 161.687C860.178 157.793 855.915 153.763 851.497 149.676C813.68 114.692 764.638 75.6785 697.367 82.9065C697.367 82.9065 697.367 82.9065 697.367 82.9065L697.42 83.4036M928.153 398.712L573.108 75.7082C573.08 75.692 573.037 75.6669 572.981 75.6327C572.868 75.5643 572.7 75.4596 572.485 75.3173C572.054 75.0327 571.434 74.5976 570.688 74.0013C569.195 72.8083 567.197 70.9713 565.189 68.4028C561.175 63.2708 557.112 55.2081 556.969 43.4942C556.682 20.0435 572.108 -18.1784 635.501 -76.8669C746.677 -179.786 942.498 -183.905 1041.85 -40.9706L1042.26 -41.256C942.704 -184.485 746.518 -180.32 635.162 -77.2338C508.326 40.1893 572.903 76.1671 572.903 76.1671M928.153 398.712C928.272 398.62 928.4 398.521 928.535 398.417C929.64 397.559 931.275 396.277 933.393 394.58C937.628 391.186 943.793 386.132 951.507 379.492C966.934 366.214 988.557 346.596 1013.33 321.246L928.153 398.712ZM697.42 83.4036C612.061 92.5278 602.93 88.6809 582.669 80.1447C579.735 78.9088 576.569 77.5745 572.903 76.1671M697.42 83.4036C772.258 75.3625 824.486 124.739 863.927 162.026C895.14 191.535 918.344 213.472 938.408 193.385C965.82 165.941 985.528 174.543 998.075 190.382C1020.65 218.85 999.439 267.935 970.253 305.074L697.42 83.4036ZM572.903 76.1671C573.128 75.7628 573.145 75.7328 573.147 75.7306L573.147 75.7305L573.145 75.7298L573.139 75.7259L573.118 75.7141C573.106 75.7095 573.094 75.7049 573.082 75.7003L572.903 76.1671Z" stroke="#708FFF"/>
<path d="M982.055 323.442C963.274 334.257 946.867 335.025 935.321 328.452C923.784 321.883 916.209 307.476 916.209 285.964C916.209 264.501 923.834 240.495 936.272 219.07C948.71 197.647 965.824 179.041 984.551 168.237C1003.33 157.423 1019.74 156.655 1031.28 163.228C1042.82 169.797 1050.4 184.204 1050.4 205.717C1050.4 227.181 1042.79 251.187 1030.36 272.611C1017.93 294.033 1000.82 312.639 982.055 323.442Z" stroke="#708FFF" stroke-width="5"/>
<path d="M955.774 299.758L955.766 299.753L955.757 299.747C948.723 295.446 944.366 286.527 944.366 273.697C944.366 260.566 948.963 245.984 956.428 233.014C963.892 220.044 974.197 208.733 985.564 202.117L985.564 202.117C996.685 195.642 1006.69 194.955 1013.99 198.911C1013.99 198.916 1014 198.921 1014.01 198.925C1014.03 198.937 1014.05 198.952 1014.08 198.97C1014.14 199.004 1014.22 199.052 1014.32 199.112C1014.52 199.233 1014.82 199.405 1015.19 199.621C1015.93 200.053 1016.98 200.664 1018.24 201.392C1020.76 202.849 1024.11 204.781 1027.46 206.712C1029.27 207.754 1031.08 208.796 1032.76 209.764C1034.19 210.59 1035.53 211.362 1036.7 212.032C1037.96 212.76 1039.02 213.37 1039.77 213.802C1040.14 214.018 1040.44 214.189 1040.64 214.309C1040.77 214.382 1040.85 214.43 1040.9 214.458C1040.94 214.48 1040.95 214.489 1040.95 214.488L1040.96 214.495L1040.97 214.501C1041.87 215.044 1042.44 215.494 1042.76 215.882C1043.07 216.255 1043.14 216.54 1043.11 216.79C1043.08 217.069 1042.92 217.396 1042.59 217.823C1042.29 218.22 1041.88 218.649 1041.4 219.162L1041.3 219.267C1039.18 221.5 1036.06 224.904 1036.06 231.633C1036.06 244.729 1031.45 259.311 1023.98 272.281C1016.5 285.252 1006.2 296.563 994.865 303.144L994.865 303.145C989.167 306.456 987.423 310.526 986.257 313.248C986.231 313.308 986.206 313.368 986.18 313.428C985.888 314.108 985.642 314.665 985.378 315.103C985.115 315.539 984.863 315.806 984.588 315.95C984.061 316.225 983.178 316.176 981.304 315.124C980.844 314.84 975.019 311.337 969.068 307.758L968.532 307.436C965.363 305.531 962.193 303.625 959.804 302.187C958.609 301.468 957.609 300.866 956.902 300.44C956.548 300.227 956.268 300.057 956.073 299.94C955.867 299.815 955.774 299.758 955.774 299.758Z" stroke="#708FFF"/>
<path d="M1011.39 218.361L1011.39 218.361C1022.84 211.769 1033.09 211.177 1040.43 215.346C1047.77 219.513 1052.4 228.541 1052.4 241.584C1052.4 254.625 1047.76 269.129 1040.24 282.037C1032.72 294.945 1022.34 306.21 1010.89 312.8C999.469 319.356 989.228 319.933 981.875 315.755C974.524 311.579 969.884 302.55 969.884 289.508C969.884 276.434 974.531 261.913 982.059 249.013C989.588 236.114 999.969 224.883 1011.39 218.361Z" stroke="#708FFF"/>
<path d="M657.349 436.04L659.888 425.318C665.982 426.59 682.518 429.645 703.829 430.62C730.524 431.841 764.97 429.814 795.83 416.731L795.831 416.73C824.66 404.489 856.943 380.106 881.983 358.841C902.603 341.329 918.489 325.775 923.72 320.538L931.491 328.237C926.101 333.629 909.459 350.001 887.7 368.393C862.085 390.042 829.581 414.314 800.085 426.863C772.317 438.667 742.382 442.087 716.85 442.087C687.875 442.087 664.719 437.651 657.349 436.04Z" stroke="#708FFF" stroke-width="5"/>
<path d="M642.811 440.204L642.784 440.198L642.758 440.193L608.64 433.134C608.639 433.134 608.639 433.133 608.638 433.133C601.001 431.539 596.209 424.242 597.81 416.934C599.413 409.612 606.919 404.855 614.52 406.393C614.522 406.393 614.523 406.394 614.525 406.394L648.633 413.451C648.634 413.451 648.635 413.451 648.636 413.452C656.272 415.046 661.064 422.343 659.464 429.651L659.462 429.659C658.084 436.045 652.255 440.541 645.732 440.541C644.765 440.541 643.792 440.43 642.811 440.204Z" stroke="#708FFF" stroke-width="5"/>
<path d="M814.719 -104.769L814.719 -104.769C747.985 -110.625 702.51 -103.988 673.7 -95.8722C659.296 -91.8146 649.06 -87.3881 642.419 -83.9705C639.098 -82.2618 636.676 -80.8055 635.082 -79.7739C634.974 -79.7041 634.87 -79.6363 634.77 -79.5705C635.039 -79.9711 635.353 -80.4247 635.711 -80.9268C637.273 -83.113 639.69 -86.2198 643.109 -89.8883C649.947 -97.225 660.789 -106.809 676.792 -115.767C708.791 -133.68 761.464 -149.114 844.084 -139.02L844.139 -139.472L844.084 -139.02C920.292 -129.722 970.601 -83.9666 1001.58 -31.7368C1032.57 20.5077 1044.2 79.1858 1043.04 114.199C1042.05 144.499 1040.09 168.404 1038.38 184.732C1037.52 192.896 1036.73 199.166 1036.15 203.393C1035.86 205.507 1035.62 207.11 1035.46 208.184C1035.39 208.625 1035.33 208.976 1035.29 209.238L1002.92 199.332C1002.96 199.124 1003.01 198.844 1003.08 198.493C1003.24 197.644 1003.47 196.382 1003.75 194.723C1004.3 191.406 1005.03 186.505 1005.77 180.164C1007.23 167.482 1008.7 149.04 1008.7 125.987C1008.7 82.5088 993.631 27.7867 961.859 -17.5476C930.079 -62.8931 881.574 -98.8675 814.719 -104.769Z" stroke="#708FFF"/>
</g>
</g>
</svg>
